{"accessors" : [{"bufferView" : 0, "byteOffset" : 0, "componentType" : 5123, "count" : 1896, "type" : "SCALAR", "max" : [359], "min" : [0]}, {"bufferView" : 1, "byteOffset" : 0, "componentType" : 5126, "count" : 360, "type" : "VEC3", "max" : [0.08125700056552887, 0.33316001296043396, 0.14121399819850922], "min" : [-0.04707900062203407, 0.012652000412344933, -0.15327699482440948], "name" : "POSITION"}, {"bufferView" : 1, "byteOffset" : 12, "componentType" : 5126, "count" : 360, "type" : "VEC2", "max" : [0.9896929860115051, 0.9833390116691589], "min" : [0.06976500153541565, 0.05611097812652588], "name" : "TEXCOORD_0"}], "asset" : {"generator" : "Aspose.3D 24.2.0", "version" : "2.0"}, "buffers" : [{"uri" : "buffer.bin", "byteLength" : 11000}], "bufferViews" : [{"buffer" : 0, "byteOffset" : 0, "byteLength" : 3792, "target" : 34963}, {"buffer" : 0, "byteOffset" : 3796, "byteLength" : 7200, "byteStride" : 20, "target" : 34962}], "meshes" : [{"primitives" : [{"attributes" : {"POSITION" : 1, "TEXCOORD_0" : 2}, "indices" : 0, "mode" : 4}], "name" : ""}], "nodes" : [{"mesh" : 0, "name" : "Cube_Cube.001"}], "scene" : 0, "scenes" : [{"nodes" : [0]}]}